# xmcd
#
# Track frame offsets: 
#        150
#        18905
#        34290
#        63493
#        97357
#        119307
#        138674
#        151653
#        186561
#        215416
#
# Disc length: 3968 seconds
#
# Revision: 2
# Processed by: cddbd v1.5.2PL0 Copyright (c) Steve Scherf et al.
# Submitted via: ExactAudioCopy v0.99pb4
#
DISCID=930f7e0a
DTITLE=Albert King - I Wanna Get Funky
DYEAR=1974
DGENRE=Blues
TTITLE0=I Wanna Get Funky
TTITLE1=Playing On Me
TTITLE2=Walking The Back Streets And Crying
TTITLE3='Til May Back Ain't Got No Bone
TTITLE4=Flat Tire
TTITLE5=I Can't Hear Nothing But The Blues
TTITLE6=Travelin' Man
TTITLE7=Crosscut Saw
TTITLE8=That What The Blues Is All About
TTITLE9=Multimedia-Track
EXTD=Albert King  'I Wanna Get Funky'\nRecorded: 1972\nRelease: 1974\n
EXTD=© 1987/1999\nLabel: Fantasy, Inc. - Stax Records\nSCD24 8536-2\n2
EXTD=4 BIT Remastered\nWith multimedia-track incl. video, biography an
EXTD=d pictures
EXTT0=
EXTT1=
EXTT2=
EXTT3=
EXTT4=
EXTT5=
EXTT6=
EXTT7=
EXTT8=
EXTT9=
PLAYORDER=
